<svg width="400" height="400" viewBox="0 0 400 400" fill="none" xmlns="http://www.w3.org/2000/svg">
  <rect width="400" height="400" fill="#DBEAFE"/>
  
  <!-- People icons -->
  <!-- Person 1 -->
  <circle cx="120" cy="150" r="30" fill="#3B82F6"/>
  <path d="M120 180 C120 180, 80 190, 80 220 L80 260 C80 260, 80 270, 90 270 L150 270 C160 270, 160 260, 160 260 L160 220 C160 220, 120 190, 120 180 Z" fill="#3B82F6"/>
  
  <!-- Person 2 -->
  <circle cx="200" cy="130" r="35" fill="#2563EB"/>
  <path d="M200 165 C200 165, 155 177, 155 210 L155 260 C155 260, 155 275, 167 275 L233 275 C245 275, 245 260, 245 260 L245 210 C245 210, 200 177, 200 165 Z" fill="#2563EB"/>
  
  <!-- Person 3 -->
  <circle cx="280" cy="150" r="30" fill="#3B82F6"/>
  <path d="M280 180 C280 180, 240 190, 240 220 L240 260 C240 260, 240 270, 250 270 L310 270 C320 270, 320 260, 320 260 L320 220 C320 220, 280 190, 280 180 Z" fill="#3B82F6"/>
  
  <!-- Connection lines -->
  <line x1="150" y1="160" x2="170" y2="150" stroke="#60A5FA" stroke-width="4" stroke-linecap="round"/>
  <line x1="230" y1="150" x2="250" y2="160" stroke="#60A5FA" stroke-width="4" stroke-linecap="round"/>
  
  <!-- Hearts/likes -->
  <path d="M180 100 L185 95 L190 100 L185 105 Z" fill="#EF4444" transform="rotate(45 185 100)"/>
  <circle cx="182" cy="97" r="5" fill="#EF4444"/>
  <circle cx="188" cy="97" r="5" fill="#EF4444"/>
  
  <path d="M220 90 L225 85 L230 90 L225 95 Z" fill="#EF4444" transform="rotate(45 225 90)"/>
  <circle cx="222" cy="87" r="5" fill="#EF4444"/>
  <circle cx="228" cy="87" r="5" fill="#EF4444"/>
</svg>

