<svg width="400" height="400" viewBox="0 0 400 400" fill="none" xmlns="http://www.w3.org/2000/svg">
  <rect width="400" height="400" fill="#FCE7F3"/>
  
  <!-- Rocket -->
  <ellipse cx="200" cy="320" rx="60" ry="15" fill="#EC4899" opacity="0.3"/>
  <ellipse cx="200" cy="310" rx="50" ry="12" fill="#EC4899" opacity="0.4"/>
  <ellipse cx="200" cy="300" rx="40" ry="10" fill="#EC4899" opacity="0.5"/>
  
  <!-- Rocket body -->
  <path d="M200 80 Q180 120, 180 180 L180 260 Q180 280, 200 280 Q220 280, 220 260 L220 180 Q220 120, 200 80 Z" fill="#DB2777"/>
  
  <!-- Rocket tip -->
  <path d="M200 80 L180 120 L220 120 Z" fill="#BE185D"/>
  
  <!-- Window -->
  <circle cx="200" cy="150" r="25" fill="#FBCFE8"/>
  <circle cx="200" cy="150" r="20" fill="#1F2937"/>
  <circle cx="205" cy="145" r="8" fill="#60A5FA" opacity="0.6"/>
  
  <!-- Fins -->
  <path d="M180 220 L160 260 L180 260 Z" fill="#EC4899"/>
  <path d="M220 220 L240 260 L220 260 Z" fill="#EC4899"/>
  
  <!-- Flames -->
  <ellipse cx="200" cy="280" rx="20" ry="30" fill="#F59E0B" opacity="0.8"/>
  <ellipse cx="190" cy="285" rx="12" ry="25" fill="#FBBF24" opacity="0.9"/>
  <ellipse cx="210" cy="285" rx="12" ry="25" fill="#FBBF24" opacity="0.9"/>
  <ellipse cx="200" cy="290" rx="10" ry="20" fill="#FEF3C7"/>
  
  <!-- Stars -->
  <circle cx="120" cy="100" r="4" fill="#FBBF24"/>
  <circle cx="280" cy="120" r="3" fill="#FBBF24"/>
  <circle cx="100" cy="180" r="3" fill="#F59E0B"/>
  <circle cx="290" cy="200" r="4" fill="#F59E0B"/>
  <circle cx="130" cy="250" r="3" fill="#FBBF24"/>
  <circle cx="270" cy="160" r="3" fill="#FBBF24"/>
  
  <!-- Star sparkles -->
  <path d="M120 95 L120 105 M115 100 L125 100" stroke="#FBBF24" stroke-width="1.5"/>
  <path d="M280 116 L280 124 M276 120 L284 120" stroke="#FBBF24" stroke-width="1.5"/>
  <path d="M290 196 L290 204 M286 200 L294 200" stroke="#F59E0B" stroke-width="1.5"/>
</svg>

